<svg width="161" height="47" viewBox="0 0 161 47" fill="none" xmlns="http://www.w3.org/2000/svg">
<path d="M9.664 35.4H12.208C12.816 35.4 13.352 35.5173 13.816 35.752C14.2853 35.9813 14.648 36.3067 14.904 36.728C15.1653 37.1493 15.296 37.64 15.296 38.2C15.296 38.76 15.1653 39.2507 14.904 39.672C14.648 40.0933 14.2853 40.4213 13.816 40.656C13.352 40.8853 12.816 41 12.208 41H9.664V35.4ZM12.144 39.936C12.704 39.936 13.1493 39.7813 13.48 39.472C13.816 39.1573 13.984 38.7333 13.984 38.2C13.984 37.6667 13.816 37.2453 13.48 36.936C13.1493 36.6213 12.704 36.464 12.144 36.464H10.96V39.936H12.144ZM18.2334 41.064C17.78 41.064 17.372 40.9707 17.0094 40.784C16.652 40.592 16.372 40.328 16.1694 39.992C15.9667 39.656 15.8654 39.2747 15.8654 38.848C15.8654 38.4213 15.9667 38.04 16.1694 37.704C16.372 37.368 16.652 37.1067 17.0094 36.92C17.372 36.728 17.78 36.632 18.2334 36.632C18.6867 36.632 19.092 36.728 19.4494 36.92C19.8067 37.1067 20.0867 37.368 20.2894 37.704C20.492 38.04 20.5934 38.4213 20.5934 38.848C20.5934 39.2747 20.492 39.656 20.2894 39.992C20.0867 40.328 19.8067 40.592 19.4494 40.784C19.092 40.9707 18.6867 41.064 18.2334 41.064ZM18.2334 40.04C18.5534 40.04 18.8147 39.9333 19.0174 39.72C19.2254 39.5013 19.3294 39.2107 19.3294 38.848C19.3294 38.4853 19.2254 38.1973 19.0174 37.984C18.8147 37.7653 18.5534 37.656 18.2334 37.656C17.9134 37.656 17.6494 37.7653 17.4414 37.984C17.2334 38.1973 17.1294 38.4853 17.1294 38.848C17.1294 39.2107 17.2334 39.5013 17.4414 39.72C17.6494 39.9333 17.9134 40.04 18.2334 40.04ZM28.2224 36.696L26.6624 41H25.4624L24.4944 38.328L23.4944 41H22.2944L20.7424 36.696H21.9184L22.9344 39.608L23.9904 36.696H25.0464L26.0704 39.608L27.1184 36.696H28.2224ZM31.4186 36.632C31.9519 36.632 32.3812 36.792 32.7066 37.112C33.0372 37.432 33.2026 37.9067 33.2026 38.536V41H31.9546V38.728C31.9546 38.3867 31.8799 38.1333 31.7306 37.968C31.5812 37.7973 31.3652 37.712 31.0826 37.712C30.7679 37.712 30.5172 37.8107 30.3306 38.008C30.1439 38.2 30.0506 38.488 30.0506 38.872V41H28.8026V36.696H29.9946V37.2C30.1599 37.0187 30.3652 36.88 30.6106 36.784C30.8559 36.6827 31.1252 36.632 31.4186 36.632ZM37.1098 40.792C36.9871 40.8827 36.8351 40.952 36.6538 41C36.4778 41.0427 36.2911 41.064 36.0938 41.064C35.5818 41.064 35.1845 40.9333 34.9018 40.672C34.6245 40.4107 34.4858 40.0267 34.4858 39.52V37.752H33.8218V36.792H34.4858V35.744H35.7338V36.792H36.8058V37.752H35.7338V39.504C35.7338 39.6853 35.7791 39.8267 35.8698 39.928C35.9658 40.024 36.0991 40.072 36.2698 40.072C36.4671 40.072 36.6351 40.0187 36.7738 39.912L37.1098 40.792ZM39.7256 41.064C39.2722 41.064 38.8642 40.9707 38.5016 40.784C38.1442 40.592 37.8642 40.328 37.6616 39.992C37.4589 39.656 37.3576 39.2747 37.3576 38.848C37.3576 38.4213 37.4589 38.04 37.6616 37.704C37.8642 37.368 38.1442 37.1067 38.5016 36.92C38.8642 36.728 39.2722 36.632 39.7256 36.632C40.1789 36.632 40.5842 36.728 40.9416 36.92C41.2989 37.1067 41.5789 37.368 41.7816 37.704C41.9842 38.04 42.0856 38.4213 42.0856 38.848C42.0856 39.2747 41.9842 39.656 41.7816 39.992C41.5789 40.328 41.2989 40.592 40.9416 40.784C40.5842 40.9707 40.1789 41.064 39.7256 41.064ZM39.7256 40.04C40.0456 40.04 40.3069 39.9333 40.5096 39.72C40.7176 39.5013 40.8216 39.2107 40.8216 38.848C40.8216 38.4853 40.7176 38.1973 40.5096 37.984C40.3069 37.7653 40.0456 37.656 39.7256 37.656C39.4056 37.656 39.1416 37.7653 38.9336 37.984C38.7256 38.1973 38.6216 38.4853 38.6216 38.848C38.6216 39.2107 38.7256 39.5013 38.9336 39.72C39.1416 39.9333 39.4056 40.04 39.7256 40.04ZM49.7146 36.696L48.1546 41H46.9546L45.9866 38.328L44.9866 41H43.7866L42.2346 36.696H43.4106L44.4266 39.608L45.4826 36.696H46.5386L47.5626 39.608L48.6106 36.696H49.7146ZM52.9108 36.632C53.4441 36.632 53.8734 36.792 54.1988 37.112C54.5294 37.432 54.6948 37.9067 54.6948 38.536V41H53.4468V38.728C53.4468 38.3867 53.3721 38.1333 53.2228 37.968C53.0734 37.7973 52.8574 37.712 52.5748 37.712C52.2601 37.712 52.0094 37.8107 51.8228 38.008C51.6361 38.2 51.5428 38.488 51.5428 38.872V41H50.2948V36.696H51.4868V37.2C51.6521 37.0187 51.8574 36.88 52.1028 36.784C52.3481 36.6827 52.6174 36.632 52.9108 36.632ZM61.7476 41L60.6676 39.44H60.6036H59.4756V41H58.1796V35.4H60.6036C61.0996 35.4 61.529 35.4827 61.8916 35.648C62.2596 35.8133 62.5423 36.048 62.7396 36.352C62.937 36.656 63.0356 37.016 63.0356 37.432C63.0356 37.848 62.9343 38.208 62.7316 38.512C62.5343 38.8107 62.2516 39.04 61.8836 39.2L63.1396 41H61.7476ZM61.7236 37.432C61.7236 37.1173 61.6223 36.8773 61.4196 36.712C61.217 36.5413 60.921 36.456 60.5316 36.456H59.4756V38.408H60.5316C60.921 38.408 61.217 38.3227 61.4196 38.152C61.6223 37.9813 61.7236 37.7413 61.7236 37.432ZM68.1904 38.864C68.1904 38.88 68.1824 38.992 68.1664 39.2H64.9104C64.9691 39.4667 65.1078 39.6773 65.3264 39.832C65.5451 39.9867 65.8171 40.064 66.1424 40.064C66.3664 40.064 66.5638 40.032 66.7344 39.968C66.9104 39.8987 67.0731 39.792 67.2224 39.648L67.8864 40.368C67.4811 40.832 66.8891 41.064 66.1104 41.064C65.6251 41.064 65.1958 40.9707 64.8224 40.784C64.4491 40.592 64.1611 40.328 63.9584 39.992C63.7558 39.656 63.6544 39.2747 63.6544 38.848C63.6544 38.4267 63.7531 38.048 63.9504 37.712C64.1531 37.3707 64.4278 37.1067 64.7744 36.92C65.1264 36.728 65.5184 36.632 65.9504 36.632C66.3718 36.632 66.7531 36.7227 67.0944 36.904C67.4358 37.0853 67.7024 37.3467 67.8944 37.688C68.0918 38.024 68.1904 38.416 68.1904 38.864ZM65.9584 37.576C65.6758 37.576 65.4384 37.656 65.2464 37.816C65.0544 37.976 64.9371 38.1947 64.8944 38.472H67.0144C66.9718 38.2 66.8544 37.984 66.6624 37.824C66.4704 37.6587 66.2358 37.576 65.9584 37.576ZM73.2152 36.696L71.2712 41.264C71.0739 41.76 70.8285 42.1093 70.5352 42.312C70.2472 42.5147 69.8979 42.616 69.4872 42.616C69.2632 42.616 69.0419 42.5813 68.8232 42.512C68.6045 42.4427 68.4259 42.3467 68.2872 42.224L68.7432 41.336C68.8392 41.4213 68.9485 41.488 69.0712 41.536C69.1992 41.584 69.3245 41.608 69.4472 41.608C69.6179 41.608 69.7565 41.5653 69.8632 41.48C69.9699 41.4 70.0659 41.264 70.1512 41.072L70.1672 41.032L68.3032 36.696H69.5912L70.7992 39.616L72.0152 36.696H73.2152ZM75.5724 39.312L74.9724 39.904V41H73.7244V35.064H74.9724V38.424L76.7964 36.696H78.2844L76.4924 38.52L78.4444 41H76.9324L75.5724 39.312ZM78.6857 42.616C78.2484 42.616 77.915 42.536 77.6857 42.376L78.0217 41.472C78.1657 41.5733 78.3417 41.624 78.5497 41.624C78.7097 41.624 78.835 41.5707 78.9257 41.464C79.0164 41.3627 79.0617 41.208 79.0617 41V36.696H80.3097V40.992C80.3097 41.4933 80.1657 41.888 79.8777 42.176C79.595 42.4693 79.1977 42.616 78.6857 42.616ZM79.6857 36.096C79.4564 36.096 79.2697 36.0293 79.1257 35.896C78.9817 35.7627 78.9097 35.5973 78.9097 35.4C78.9097 35.2027 78.9817 35.0373 79.1257 34.904C79.2697 34.7707 79.4564 34.704 79.6857 34.704C79.915 34.704 80.1017 34.768 80.2457 34.896C80.3897 35.024 80.4617 35.184 80.4617 35.376C80.4617 35.584 80.3897 35.7573 80.2457 35.896C80.1017 36.0293 79.915 36.096 79.6857 36.096ZM83.1948 36.632C83.8615 36.632 84.3735 36.792 84.7308 37.112C85.0881 37.4267 85.2668 37.904 85.2668 38.544V41H84.0988V40.464C83.8641 40.864 83.4268 41.064 82.7868 41.064C82.4561 41.064 82.1681 41.008 81.9228 40.896C81.6828 40.784 81.4988 40.6293 81.3708 40.432C81.2428 40.2347 81.1788 40.0107 81.1788 39.76C81.1788 39.36 81.3281 39.0453 81.6268 38.816C81.9308 38.5867 82.3975 38.472 83.0268 38.472H84.0188C84.0188 38.2 83.9361 37.992 83.7708 37.848C83.6055 37.6987 83.3575 37.624 83.0268 37.624C82.7975 37.624 82.5708 37.6613 82.3468 37.736C82.1281 37.8053 81.9415 37.9013 81.7868 38.024L81.3388 37.152C81.5735 36.9867 81.8535 36.8587 82.1788 36.768C82.5095 36.6773 82.8481 36.632 83.1948 36.632ZM83.0988 40.224C83.3121 40.224 83.5015 40.176 83.6668 40.08C83.8321 39.9787 83.9495 39.832 84.0188 39.64V39.2H83.1628C82.6508 39.2 82.3948 39.368 82.3948 39.704C82.3948 39.864 82.4561 39.992 82.5788 40.088C82.7068 40.1787 82.8801 40.224 83.0988 40.224ZM90.5902 36.696L88.7742 41H87.4862L85.6782 36.696H86.9662L88.1582 39.624L89.3902 36.696H90.5902ZM91.0994 36.696H92.3474V41H91.0994V36.696ZM92.0754 34.992H93.4194L91.9714 36.144H90.9954L92.0754 34.992ZM95.3537 39.312L94.7537 39.904V41H93.5057V35.064H94.7537V38.424L96.5777 36.696H98.0657L96.2737 38.52L98.2257 41H96.7137L95.3537 39.312ZM104.829 39.8H102.229L101.733 41H100.405L102.901 35.4H104.181L106.685 41H105.325L104.829 39.8ZM104.421 38.816L103.533 36.672L102.645 38.816H104.421ZM109.722 36.632C110.122 36.632 110.484 36.7253 110.81 36.912C111.14 37.0933 111.399 37.352 111.586 37.688C111.772 38.0187 111.866 38.4053 111.866 38.848C111.866 39.2907 111.772 39.68 111.586 40.016C111.399 40.3467 111.14 40.6053 110.81 40.792C110.484 40.9733 110.122 41.064 109.722 41.064C109.172 41.064 108.74 40.8907 108.426 40.544V42.552H107.178V36.696H108.37V37.192C108.679 36.8187 109.13 36.632 109.722 36.632ZM109.506 40.04C109.826 40.04 110.087 39.9333 110.29 39.72C110.498 39.5013 110.602 39.2107 110.602 38.848C110.602 38.4853 110.498 38.1973 110.29 37.984C110.087 37.7653 109.826 37.656 109.506 37.656C109.186 37.656 108.922 37.7653 108.714 37.984C108.511 38.1973 108.41 38.4853 108.41 38.848C108.41 39.2107 108.511 39.5013 108.714 39.72C108.922 39.9333 109.186 40.04 109.506 40.04ZM114.367 36.632C115.033 36.632 115.545 36.792 115.903 37.112C116.26 37.4267 116.439 37.904 116.439 38.544V41H115.271V40.464C115.036 40.864 114.599 41.064 113.959 41.064C113.628 41.064 113.34 41.008 113.095 40.896C112.855 40.784 112.671 40.6293 112.543 40.432C112.415 40.2347 112.351 40.0107 112.351 39.76C112.351 39.36 112.5 39.0453 112.799 38.816C113.103 38.5867 113.569 38.472 114.199 38.472H115.191C115.191 38.2 115.108 37.992 114.943 37.848C114.777 37.6987 114.529 37.624 114.199 37.624C113.969 37.624 113.743 37.6613 113.519 37.736C113.3 37.8053 113.113 37.9013 112.959 38.024L112.511 37.152C112.745 36.9867 113.025 36.8587 113.351 36.768C113.681 36.6773 114.02 36.632 114.367 36.632ZM114.271 40.224C114.484 40.224 114.673 40.176 114.839 40.08C115.004 39.9787 115.121 39.832 115.191 39.64V39.2H114.335C113.823 39.2 113.567 39.368 113.567 39.704C113.567 39.864 113.628 39.992 113.751 40.088C113.879 40.1787 114.052 40.224 114.271 40.224ZM118.76 37.264C118.91 37.056 119.11 36.8987 119.36 36.792C119.616 36.6853 119.91 36.632 120.24 36.632V37.784C120.102 37.7733 120.008 37.768 119.96 37.768C119.603 37.768 119.323 37.8693 119.12 38.072C118.918 38.2693 118.816 38.568 118.816 38.968V41H117.568V36.696H118.76V37.264ZM123.907 40.792C123.784 40.8827 123.632 40.952 123.451 41C123.275 41.0427 123.088 41.064 122.891 41.064C122.379 41.064 121.981 40.9333 121.699 40.672C121.421 40.4107 121.283 40.0267 121.283 39.52V37.752H120.619V36.792H121.283V35.744H122.531V36.792H123.603V37.752H122.531V39.504C122.531 39.6853 122.576 39.8267 122.667 39.928C122.763 40.024 122.896 40.072 123.067 40.072C123.264 40.072 123.432 40.0187 123.571 39.912L123.907 40.792ZM130.119 36.632C130.658 36.632 131.085 36.792 131.399 37.112C131.719 37.4267 131.879 37.9013 131.879 38.536V41H130.631V38.728C130.631 38.3867 130.559 38.1333 130.415 37.968C130.277 37.7973 130.077 37.712 129.815 37.712C129.522 37.712 129.29 37.808 129.119 38C128.949 38.1867 128.863 38.4667 128.863 38.84V41H127.615V38.728C127.615 38.0507 127.343 37.712 126.799 37.712C126.511 37.712 126.282 37.808 126.111 38C125.941 38.1867 125.855 38.4667 125.855 38.84V41H124.607V36.696H125.799V37.192C125.959 37.0107 126.154 36.872 126.383 36.776C126.618 36.68 126.874 36.632 127.151 36.632C127.455 36.632 127.73 36.6933 127.975 36.816C128.221 36.9333 128.418 37.1067 128.567 37.336C128.743 37.112 128.965 36.9387 129.231 36.816C129.503 36.6933 129.799 36.632 130.119 36.632ZM137.261 38.864C137.261 38.88 137.253 38.992 137.237 39.2H133.981C134.039 39.4667 134.178 39.6773 134.397 39.832C134.615 39.9867 134.887 40.064 135.213 40.064C135.437 40.064 135.634 40.032 135.805 39.968C135.981 39.8987 136.143 39.792 136.293 39.648L136.957 40.368C136.551 40.832 135.959 41.064 135.181 41.064C134.695 41.064 134.266 40.9707 133.893 40.784C133.519 40.592 133.231 40.328 133.029 39.992C132.826 39.656 132.725 39.2747 132.725 38.848C132.725 38.4267 132.823 38.048 133.021 37.712C133.223 37.3707 133.498 37.1067 133.845 36.92C134.197 36.728 134.589 36.632 135.021 36.632C135.442 36.632 135.823 36.7227 136.165 36.904C136.506 37.0853 136.773 37.3467 136.965 37.688C137.162 38.024 137.261 38.416 137.261 38.864ZM135.029 37.576C134.746 37.576 134.509 37.656 134.317 37.816C134.125 37.976 134.007 38.1947 133.965 38.472H136.085C136.042 38.2 135.925 37.984 135.733 37.824C135.541 37.6587 135.306 37.576 135.029 37.576ZM140.708 36.632C141.241 36.632 141.67 36.792 141.996 37.112C142.326 37.432 142.492 37.9067 142.492 38.536V41H141.244V38.728C141.244 38.3867 141.169 38.1333 141.02 37.968C140.87 37.7973 140.654 37.712 140.372 37.712C140.057 37.712 139.806 37.8107 139.62 38.008C139.433 38.2 139.34 38.488 139.34 38.872V41H138.092V36.696H139.284V37.2C139.449 37.0187 139.654 36.88 139.9 36.784C140.145 36.6827 140.414 36.632 140.708 36.632ZM146.399 40.792C146.276 40.8827 146.124 40.952 145.943 41C145.767 41.0427 145.58 41.064 145.383 41.064C144.871 41.064 144.474 40.9333 144.191 40.672C143.914 40.4107 143.775 40.0267 143.775 39.52V37.752H143.111V36.792H143.775V35.744H145.023V36.792H146.095V37.752H145.023V39.504C145.023 39.6853 145.068 39.8267 145.159 39.928C145.255 40.024 145.388 40.072 145.559 40.072C145.756 40.072 145.924 40.0187 146.063 39.912L146.399 40.792ZM148.547 41.064C148.19 41.064 147.841 41.0213 147.499 40.936C147.158 40.8453 146.886 40.7333 146.683 40.6L147.099 39.704C147.291 39.8267 147.523 39.928 147.795 40.008C148.067 40.0827 148.334 40.12 148.595 40.12C149.123 40.12 149.387 39.9893 149.387 39.728C149.387 39.6053 149.315 39.5173 149.171 39.464C149.027 39.4107 148.806 39.3653 148.507 39.328C148.155 39.2747 147.865 39.2133 147.635 39.144C147.406 39.0747 147.206 38.952 147.035 38.776C146.87 38.6 146.787 38.3493 146.787 38.024C146.787 37.752 146.865 37.512 147.019 37.304C147.179 37.0907 147.409 36.9253 147.707 36.808C148.011 36.6907 148.369 36.632 148.779 36.632C149.083 36.632 149.385 36.6667 149.683 36.736C149.987 36.8 150.238 36.8907 150.435 37.008L150.019 37.896C149.641 37.6827 149.227 37.576 148.779 37.576C148.513 37.576 148.313 37.6133 148.179 37.688C148.046 37.7627 147.979 37.8587 147.979 37.976C147.979 38.1093 148.051 38.2027 148.195 38.256C148.339 38.3093 148.569 38.36 148.883 38.408C149.235 38.4667 149.523 38.5307 149.747 38.6C149.971 38.664 150.166 38.784 150.331 38.96C150.497 39.136 150.579 39.3813 150.579 39.696C150.579 39.9627 150.499 40.2 150.339 40.408C150.179 40.616 149.945 40.7787 149.635 40.896C149.331 41.008 148.969 41.064 148.547 41.064Z" fill="#EB3323"/>
<path d="M58.2961 2L53.3194 12.4639V21.0136H49.1083V27.0112H45.2801V15.0161H38.2616V21.0136H33.7953V25.2247L28.8186 21.0136L23.9695 27.0112V22.6726L17.9719 19.8652V27.0112H11.9743L9.16693 24.0762L1 30.8395V45.5144H160V32.626L149.791 22.6726L145.58 25.2247L138.689 21.0136V15.0161H130.14C128.226 8.25281 124.704 7.35955 118.272 7.35955C111.841 7.35955 109.807 12.4639 109.595 15.0161H101.555V21.0136L88.4117 25.2247C88.114 23.821 86.8039 21.0136 83.9454 21.0136C81.087 21.0136 79.6918 23.821 79.3515 25.2247H63.7833V12.4639L58.2961 2Z" stroke="black"/>
</svg>
